<svg width="14" height="13" viewBox="0 0 14 13" fill="none" xmlns="http://www.w3.org/2000/svg">
<path d="M3.50282 0.200867C3.72946 0.262373 3.95461 0.326553 4.13782 0.485221C4.16756 0.511071 4.19998 0.534247 4.22764 0.561881C4.77074 1.10355 5.31532 1.64373 5.85544 2.18867C6.26321 2.6002 6.33459 3.1591 6.04728 3.62976C5.92147 3.83596 5.7451 3.98364 5.51787 4.06476C5.1788 4.18598 4.91677 4.39071 4.77133 4.72736C4.67556 4.94872 4.66337 5.17484 4.72553 5.40927C4.868 5.94648 5.14787 6.40941 5.49467 6.8352C6.01189 7.46987 6.61566 8.00263 7.35476 8.3687C7.59953 8.48992 7.85294 8.60135 8.13222 8.59006C8.65628 8.56896 9.0462 8.32323 9.21603 7.82049C9.462 7.094 10.4518 6.79123 11.0898 7.41877C11.6537 7.97321 12.215 8.53033 12.7676 9.09607C13.2214 9.56049 13.2122 10.3072 12.7554 10.7746C12.3878 11.1507 12.0124 11.5192 11.6397 11.8903C11.328 12.2005 10.9375 12.3208 10.5116 12.3387C9.9126 12.3639 9.34571 12.2103 8.7928 11.9996C7.89369 11.657 7.07785 11.165 6.30634 10.5966C4.85283 9.52572 3.5971 8.25876 2.55523 6.78439C2.00946 6.01215 1.54666 5.19326 1.24002 4.29325C1.11867 3.93729 1.03539 3.573 0.988698 3.2001C0.985129 3.17217 1.00357 3.13474 0.962524 3.1178V2.71459C1.00268 2.69706 0.985426 2.65992 0.9884 2.63199C1.03539 2.21422 1.19243 1.85351 1.50384 1.55875C1.8191 1.26014 2.12307 0.949042 2.42734 0.638837C2.61263 0.449862 2.81339 0.2906 3.07929 0.232363C3.09713 0.2285 3.11944 0.22642 3.12301 0.200867L3.50282 0.200867Z" fill="white"/>
</svg>
