<svg width="14" height="11" viewBox="0 0 14 11" fill="none" xmlns="http://www.w3.org/2000/svg">
<path d="M12.813 10.4615H1.00313C0.923583 10.3955 0.806295 10.415 0.726746 10.3385C0.738963 10.3238 0.749009 10.3094 0.761498 10.2969C2.1122 8.94297 3.46372 7.58956 4.81225 6.23342C4.87605 6.16935 4.90537 6.18455 4.9594 6.2394C5.29796 6.58339 5.63977 6.92439 5.9805 7.26593C6.54603 7.83255 7.3236 7.83282 7.88995 7.26593C8.2247 6.9309 8.56055 6.59669 8.89205 6.25867C8.95938 6.18999 8.99657 6.16935 9.07829 6.25162C10.41 7.59282 11.7458 8.92967 13.0802 10.2684C13.103 10.2912 13.1418 10.3067 13.1361 10.3491C13.0381 10.4202 12.9146 10.4091 12.8128 10.4615H12.813Z" fill="white"/>
<path d="M13.8695 9.46019C13.8146 9.52318 13.8135 9.6068 13.7856 9.6801C13.7541 9.76237 13.7302 9.77241 13.6628 9.704C13.2358 9.27041 12.8041 8.84145 12.3743 8.41058C11.4667 7.50106 10.5604 6.59046 9.65011 5.68365C9.57544 5.60926 9.5749 5.57207 9.64983 5.49714C10.9802 4.16897 12.3073 2.83754 13.6352 1.50693C13.7467 1.39507 13.7457 1.39562 13.8024 1.55091C13.8263 1.61607 13.8263 1.6891 13.8695 1.74748V9.46019Z" fill="white"/>
<path d="M0.722168 0.838719C0.855202 0.759984 0.996384 0.737993 1.13892 0.722518C1.18806 0.717088 1.23802 0.718988 1.2877 0.718988C5.05202 0.718988 8.81607 0.718988 12.5804 0.718445C12.7761 0.718445 12.9654 0.742337 13.166 0.84252C12.9575 1.04641 12.756 1.23945 12.5589 1.43683C10.8089 3.18935 9.0596 4.94295 7.31007 6.69574C7.07142 6.93466 6.80101 6.93548 6.56399 6.69819C4.64559 4.77571 2.72718 2.85323 0.809049 0.930756C0.780814 0.902521 0.753933 0.872384 0.722168 0.838719Z" fill="white"/>
<path d="M0.00108705 5.5908C0.00108705 4.38697 0.00162925 3.18288 0.000271763 1.97906C0.000271763 1.82376 0.0260651 1.67552 0.0760208 1.52891C0.109687 1.43036 0.134121 1.40022 0.225345 1.49253C0.8335 2.10938 1.44735 2.72025 2.05904 3.33356C2.77932 4.0552 3.49798 4.7782 4.22098 5.49713C4.2951 5.5707 4.29754 5.6079 4.22179 5.68338C2.89037 7.01236 1.5622 8.3446 0.233216 9.67603C0.161359 9.74806 0.107967 9.73594 0.0730347 9.63965C0.0214501 9.49847 0 9.35322 0 9.20281C0.00135749 7.99898 0.000815289 6.79489 0.000815289 5.59107L0.00108705 5.5908Z" fill="white"/>
</svg>
