<svg width="27" height="27" viewBox="0 0 27 27" fill="none" xmlns="http://www.w3.org/2000/svg">
<path d="M26.7253 13.363C26.7253 20.7433 20.7427 26.726 13.3623 26.726C5.98268 26.7253 0 20.7427 0 13.363C0 5.98268 5.98268 0 13.363 0C20.7433 0 26.726 5.98268 26.726 13.363H26.7253Z" fill="#0C1636"/>
<path d="M17.3219 12.3259L17.0993 14.1136C17.0616 14.4122 16.8087 14.6369 16.5087 14.6369H13.6132V22.1114C13.3079 22.139 12.9985 22.1531 12.6857 22.1531C11.9862 22.1531 11.3036 22.0831 10.6437 21.95V14.6369H8.4168C8.21233 14.6369 8.04553 14.4694 8.04553 14.2643V12.0272C8.04553 11.8221 8.21233 11.6546 8.4168 11.6546H10.6437V8.29976C10.6437 6.24096 12.3057 4.57227 14.3564 4.57227H16.9547C17.1591 4.57227 17.3259 4.73974 17.3259 4.94488V7.18191C17.3259 7.38705 17.1591 7.55453 16.9547 7.55453H15.0983C14.2784 7.55453 13.6139 8.22174 13.6139 9.04566V11.6553H16.732C17.0898 11.6553 17.3663 11.9701 17.3226 12.3265L17.3219 12.3259Z" fill="white"/>
</svg>
