<svg width="27" height="27" viewBox="0 0 27 27" fill="none" xmlns="http://www.w3.org/2000/svg">
<path d="M26.726 13.363C26.726 20.7433 20.7433 26.726 13.363 26.726C5.98268 26.726 0 20.7433 0 13.363C0 5.98268 5.98268 0 13.363 0C20.7433 0 26.726 5.98268 26.726 13.363Z" fill="#0C1636"/>
<path d="M16.9889 6.35394H9.73774C7.86929 6.35394 6.35394 7.86929 6.35394 9.73774V16.9889C6.35394 18.8574 7.86929 20.3727 9.73774 20.3727H16.9889C18.8574 20.3727 20.3727 18.8574 20.3727 16.9889V9.73774C20.3727 7.86929 18.8574 6.35394 16.9889 6.35394ZM19.1641 16.7468C19.1641 18.0812 18.0812 19.1641 16.7468 19.1641H9.97921C8.64479 19.1641 7.56191 18.0812 7.56191 16.7468V9.9792C7.56191 8.64478 8.64479 7.56192 9.97921 7.56192H16.7468C18.0812 7.56192 19.1641 8.64478 19.1641 9.9792V16.7468Z" fill="white"/>
<path d="M13.3704 9.73773C11.3695 9.73773 9.74518 11.362 9.74518 13.363C9.74518 15.3639 11.3695 16.9882 13.3704 16.9882C15.3714 16.9882 16.9957 15.3639 16.9957 13.363C16.9957 11.362 15.3714 9.73773 13.3704 9.73773ZM13.3704 15.7803C12.0387 15.7803 10.9532 14.6947 10.9532 13.363C10.9532 12.0313 12.0387 10.9457 13.3704 10.9457C14.7022 10.9457 15.7877 12.0313 15.7877 13.363C15.7877 14.6947 14.7022 15.7803 13.3704 15.7803Z" fill="white"/>
<path d="M17.2378 10.2213C16.8383 10.2213 16.5128 9.89581 16.5128 9.49629C16.5128 9.09678 16.8383 8.77124 17.2378 8.77124C17.6373 8.77124 17.9629 9.09678 17.9629 9.49629C17.9629 9.89581 17.6373 10.2213 17.2378 10.2213Z" fill="white"/>
</svg>
