<svg width="27" height="27" viewBox="0 0 27 27" fill="none" xmlns="http://www.w3.org/2000/svg">
<path d="M26.726 13.363C26.726 20.7433 20.7433 26.726 13.363 26.726C5.98269 26.726 0 20.7433 0 13.363C0 5.98268 5.98269 0 13.363 0C20.7433 0 26.726 5.98268 26.726 13.363Z" fill="#0C1636"/>
<path d="M8.63004 9.79088C9.58061 9.79088 10.3512 9.02029 10.3512 8.06973C10.3512 7.11916 9.58061 6.34857 8.63004 6.34857C7.67947 6.34857 6.90887 7.11916 6.90887 8.06973C6.90887 9.02029 7.67947 9.79088 8.63004 9.79088Z" fill="white"/>
<path d="M9.93617 10.9376H7.32451C7.25356 10.9376 7.19604 10.9951 7.19604 11.0661V19.4143C7.19604 19.4852 7.25356 19.5427 7.32451 19.5427H9.93617C10.0071 19.5427 10.0646 19.4852 10.0646 19.4143V11.0661C10.0646 10.9951 10.0071 10.9376 9.93617 10.9376Z" fill="white"/>
<path d="M19.8172 14.0934V18.9697C19.8172 19.2852 19.5589 19.5434 19.2435 19.5434H17.5223C17.2069 19.5434 16.9486 19.2852 16.9486 18.9697V14.9537C16.9486 14.162 16.3063 13.5197 15.5147 13.5197C14.723 13.5197 14.0807 14.162 14.0807 14.9537V18.9697C14.0807 19.2852 13.8224 19.5434 13.507 19.5434H11.7858C11.4704 19.5434 11.2121 19.2852 11.2121 18.9697V11.5114C11.2121 11.1959 11.4704 10.9376 11.7858 10.9376H13.507C13.8224 10.9376 14.0807 11.1959 14.0807 11.5114V11.8786C14.6544 11.1354 15.6041 10.6511 16.6621 10.6511C18.2454 10.6511 19.8172 11.7986 19.8172 14.0934Z" fill="white"/>
</svg>
