<svg width="183" height="36" viewBox="0 0 183 36" fill="none" xmlns="http://www.w3.org/2000/svg">
<path d="M149.016 12.0968V28.4125H153.142V11.6827C151.772 11.6827 150.401 11.8167 149.058 12.0848L149.019 12.0938L149.016 12.0968Z" fill="white"/>
<path d="M148.647 7.05631C148.647 10.2676 153.511 10.2676 153.511 7.05631C153.511 3.845 148.647 3.845 148.647 7.05631Z" fill="white"/>
<path d="M175.94 11.5188C173.777 11.5188 171.847 12.192 170.363 14.5573C169.416 12.2635 167.423 11.4473 165.427 11.4473L165.028 11.4651H164.873C163.702 11.5158 162.535 11.6796 161.394 11.9656C161.391 11.9656 161.382 11.9656 161.376 11.9686C161.179 12.0192 160.986 12.0728 160.792 12.1384C159.428 12.5733 158.147 13.2972 156.925 14.0598C156.922 14.0628 156.913 14.0687 156.91 14.0717C156.788 14.1462 156.669 14.2236 156.583 14.3428C156.335 14.6645 156.603 15.2961 156.657 15.6595C156.743 16.2255 156.794 16.7975 156.827 17.3664C156.883 18.3733 156.913 19.3802 156.913 20.3901V28.4184H161.039V19.4934C161.039 19.4755 161.039 19.4577 161.042 19.4398C161.033 19.2998 161.027 19.1657 161.018 19.0317C160.985 18.4687 160.923 17.8967 160.828 17.3128C160.795 17.1103 160.762 16.8988 160.72 16.6664C161.155 16.3298 161.632 16.0378 162.15 15.7995C162.964 15.4242 163.747 15.302 164.504 15.302H164.581C166.848 15.302 167.995 17.2979 167.995 19.4934V28.4184H172.121V19.4934C172.121 17.2979 173.506 15.3735 175.734 15.3735C177.963 15.3735 178.88 17.2324 178.88 19.4279V28.4184H183V19.4279C183 14.4262 180.667 11.5188 175.94 11.5188Z" fill="white"/>
<path d="M138.399 11.5188C136.236 11.5188 134.306 12.192 132.822 14.5573C131.875 12.2635 129.882 11.4473 127.886 11.4473L127.487 11.4651H127.332C126.162 11.5158 124.994 11.6796 123.853 11.9656C123.85 11.9656 123.841 11.9656 123.835 11.9686C123.638 12.0192 123.445 12.0728 123.251 12.1384C121.887 12.5733 120.606 13.2972 119.384 14.0598C119.381 14.0628 119.373 14.0687 119.37 14.0717C119.247 14.1462 119.128 14.2236 119.042 14.3428C118.795 14.6645 119.063 15.2961 119.116 15.6595C119.203 16.2255 119.253 16.7975 119.286 17.3664C119.343 18.3733 119.373 19.3802 119.373 20.3901V28.4184H123.498V19.4934C123.498 19.4755 123.498 19.4577 123.501 19.4398C123.492 19.2998 123.486 19.1657 123.477 19.0317C123.445 18.4687 123.382 17.8967 123.287 17.3128C123.254 17.1103 123.221 16.8988 123.18 16.6664C123.615 16.3298 124.091 16.0378 124.61 15.7995C125.423 15.4242 126.206 15.302 126.963 15.302H127.04C129.307 15.302 130.454 17.2979 130.454 19.4934V28.4184H134.58V19.4934C134.58 17.2979 135.965 15.3735 138.194 15.3735C140.422 15.3735 141.339 17.2324 141.339 19.4279V28.4184H145.459V19.4279C145.459 14.4262 143.127 11.5188 138.399 11.5188Z" fill="white"/>
<path d="M115.452 23.8606L115.324 23.6908C114.663 22.8239 114.195 21.5817 113.936 20.0059L112.569 11.4086L112.095 11.0541C110.531 10.7771 108.922 10.7205 107.317 10.8903C105.705 11.0571 104.171 11.4741 102.762 12.1235C101.356 12.773 100.143 13.6845 99.1633 14.8344C98.1862 15.9753 97.5338 17.3963 97.2389 19.0496C97.0334 20.1965 97.0304 21.2451 97.227 22.1656C97.4236 23.0831 97.7692 23.9053 98.2547 24.6024C98.7433 25.3024 99.3331 25.9101 100.003 26.4047C100.677 26.9021 101.401 27.3132 102.154 27.635C102.905 27.9507 103.65 28.1771 104.359 28.3052C105.288 28.472 106.322 28.5197 107.433 28.4452C108.526 28.3708 109.634 28.1741 110.722 27.8554L111.192 26.7949L111.431 26.2557L111.592 25.8863L111.842 26.2289C111.886 26.2885 111.928 26.351 111.973 26.4076C112.369 26.926 112.837 27.3698 113.37 27.7362C114.198 28.3052 115.309 28.7193 116.677 28.9844L117.302 25.1297C116.254 24.9152 115.98 24.5547 115.452 23.8606ZM110.576 24.4028C110.212 24.4773 109.819 24.5368 109.399 24.5964C108.267 24.7424 107.084 24.7096 105.878 24.4922C105.053 24.3432 104.272 24.0483 103.554 23.6134C102.83 23.1725 102.273 22.5886 101.895 21.8856C101.517 21.1736 101.403 20.3425 101.573 19.4101C101.689 18.7607 101.969 18.1232 102.398 17.5184C102.827 16.9167 103.423 16.3835 104.171 15.9366C104.913 15.4898 105.809 15.1591 106.837 14.9387C107.358 14.8284 107.918 14.7718 108.511 14.7659C108.654 14.7659 108.782 14.7718 108.848 14.7927L109.262 17.0329L110.144 21.7664C110.299 22.4903 110.48 23.1576 110.683 23.7653H110.677L110.871 24.3432L110.576 24.4028Z" fill="white"/>
<path d="M95.377 21.4715C95.377 23.8904 94.4744 25.7463 92.6751 27.0391C91.8053 27.6677 90.7954 28.1414 89.6485 28.4661C88.4301 28.8116 87.0568 28.9844 85.5286 28.9844C83.7681 28.9844 82.0671 28.7848 80.4257 28.3856C78.7843 27.9865 77.4825 27.4145 76.5233 26.6668V26.2557C76.6841 25.5675 76.7884 24.7215 76.848 23.7087C76.8986 22.8269 76.9254 22.5499 76.9314 21.6681L81.0662 22.0434C81.0602 22.2579 81.0483 21.8528 81.0364 22.0434C81.0036 22.6065 80.944 23.1784 80.8487 23.7623C80.8159 23.9649 80.7653 24.1942 80.7266 24.4236C81.6053 24.8496 82.4126 25.1147 83.1484 25.2279C83.8813 25.3411 84.5694 25.3948 85.2099 25.3948C85.5554 25.3948 85.8861 25.3829 86.2048 25.362C87.316 25.2816 88.2722 25.0611 89.0706 24.7036C90.0983 24.2449 90.6137 23.3155 90.6137 21.9213C90.6137 20.402 90.0268 19.3862 88.8502 18.8768C88.3557 18.6594 87.8284 18.4657 87.2713 18.2959C86.5087 18.0546 85.6865 17.858 84.8077 17.6972C83.5804 17.4737 82.3441 17.1758 81.09 16.8005H81.087C79.8299 16.4281 78.7902 15.8055 77.9621 14.9327C77.4765 14.4203 77.1339 13.7649 76.9343 12.9636C76.7943 12.4065 76.7228 11.778 76.7228 11.0839C76.7228 10.3898 76.7914 9.74632 76.9343 9.15649C77.3008 7.5985 78.1587 6.41585 79.5052 5.61154C80.0146 5.3047 80.5448 5.04256 81.09 4.82211C82.5199 4.24122 84.066 3.94928 85.7282 3.94928C86.2466 3.94928 86.7619 3.97311 87.2713 4.02375C88.3348 4.1161 89.3745 4.31867 90.3933 4.61954C90.7567 4.72977 91.1022 4.84594 91.4299 4.97106C92.4517 5.3613 93.2858 5.829 93.9352 6.37713L94.1378 10.7055L91.3912 10.9379L90.575 11.0064L90.2532 8.65603C89.5055 8.25685 88.7578 7.98278 88.0101 7.83384C87.7599 7.78319 87.5156 7.74149 87.2713 7.70872C86.7857 7.64318 86.3121 7.61041 85.8504 7.61041C84.5932 7.61041 83.5536 7.84575 82.7284 8.3194C81.9003 8.79306 81.4862 9.55269 81.4862 10.5983C81.4862 11.8197 81.9986 12.6478 83.0263 13.0828C84.054 13.5207 85.2099 13.8752 86.4908 14.1492C86.744 14.1999 87.0032 14.2565 87.2713 14.316C88.165 14.5156 89.1451 14.7569 90.2115 15.0459C90.6346 15.1591 91.0397 15.2991 91.4299 15.4689C92.3177 15.8532 93.119 16.3775 93.834 17.0448C94.8617 18.004 95.377 19.4786 95.377 21.4715Z" fill="white"/>
<path d="M62.4062 10.4851C62.293 9.14754 61.9236 7.7653 61.301 6.57372C60.7499 5.52215 59.6805 4.56888 58.7719 3.8301C56.8147 2.24232 54.4405 1.19671 51.9859 0.675393C51.8637 0.648582 51.7386 0.624751 51.6165 0.600919C45.6437 -0.534062 39.3581 0.943499 34.0317 3.68711C33.9781 3.71392 33.9245 3.74371 33.8708 3.77053C29.6169 5.98985 26.0243 9.03136 22.8904 12.6359C21.1656 14.6199 19.6523 16.7468 18.6365 19.1926C18.5382 19.4309 18.4101 19.6573 18.2969 19.8896C18.133 19.7943 18.0318 19.6335 17.9156 19.4934C14.5017 15.4123 12.2883 10.2229 11.3023 5.01871C11.2636 4.81018 11.2189 4.58974 11.0819 4.42887C10.7571 4.05353 10.1465 4.21141 9.69962 4.43185C7.98672 5.27788 6.49129 6.6184 5.13288 7.94106C3.61362 9.41862 2.15095 10.9409 1.06959 12.7848C0.759782 13.3151 0.449971 13.9139 0.50955 14.5365C0.572108 15.165 0.744887 15.8085 0.899793 16.4192C1.21854 17.6614 1.64751 18.8738 2.17478 20.0416C3.23231 22.386 4.68008 24.5517 6.41383 26.4523C7.29858 27.4234 8.25781 28.326 9.28257 29.1482C13.9178 32.8719 19.7417 34.9751 25.6579 35.5917C31.6992 36.2203 38.0414 35.2938 43.8593 33.6226C47.6842 32.5234 51.6463 30.6228 54.6401 27.9805C57.8455 25.1475 60.0022 21.2778 61.3845 17.2294C62.1322 15.0429 62.5969 12.7104 62.4092 10.4881L62.4062 10.4851ZM28.7321 18.9066C33.5402 15.4093 39.233 13.1572 45.1492 12.9338C47.4817 12.8444 49.8678 13.0738 52.0156 13.9943C53.2579 14.5275 54.4048 15.3021 55.3253 16.294C55.787 16.7915 56.1892 17.3456 56.5109 17.9474C56.6151 18.144 56.9399 18.6087 56.919 18.8321C56.8981 19.0555 56.5556 19.2104 56.3977 19.3415C55.9985 19.6722 55.5844 19.9879 55.1614 20.2858C54.3273 20.8727 53.4515 21.397 52.5489 21.8677C50.7317 22.815 48.8103 23.5448 46.8531 24.1406C42.6409 25.4275 38.2261 26.1097 33.8172 26.0025C31.9464 25.9578 30.0757 25.7671 28.2376 25.4156C27.3291 25.2428 26.4294 25.0313 25.5387 24.7781C25.1246 24.6619 24.6659 24.5785 24.2756 24.3968C23.9331 24.2359 23.5935 24.0393 23.2628 23.8636C23.516 23.378 24.1088 22.9222 24.4991 22.532C24.937 22.0941 25.3868 21.6681 25.8455 21.251C26.766 20.4199 27.7312 19.6364 28.7321 18.9096V18.9066Z" fill="#D93408"/>
<path d="M56.3945 19.3415C56.0072 19.6871 55.5813 19.9879 55.1582 20.2858C54.3241 20.8727 53.4483 21.397 52.5457 21.8677C50.7285 22.815 48.8071 23.5448 46.8499 24.1406C39.2119 26.4761 29.7984 27.343 22.634 23.1635C20.9539 22.1834 19.4793 20.977 18.1894 19.5977C14.4926 15.6536 12.3209 10.3212 11.2991 5.01871C11.2604 4.81018 11.2157 4.58974 11.0787 4.42887C10.754 4.05352 10.1433 4.21141 9.69645 4.43185C7.98355 5.27787 6.48811 6.6184 5.12971 7.94106C3.61044 9.41862 2.14778 10.9409 1.06642 12.7848C0.756608 13.3151 0.446797 13.9139 0.506376 14.5365C0.568934 15.165 0.741713 15.8085 0.896619 16.4192C1.21537 17.6614 1.64434 18.8738 2.17161 20.0416C3.22914 22.386 4.67691 24.5517 6.41066 26.4523C7.29541 27.4234 8.25463 28.326 9.27939 29.1482C13.9146 32.8719 19.7385 34.9751 25.6547 35.5917C31.696 36.2203 38.0382 35.2938 43.8561 33.6226C47.6811 32.5234 51.6431 30.6228 54.6369 27.9805C57.8423 25.1475 59.999 21.2778 61.3843 17.2294C62.132 15.0429 62.5967 12.7104 62.409 10.4881C62.409 10.4881 58.9475 17.0775 56.3975 19.3445L56.3945 19.3415Z" fill="url(#paint0_radial_2035_37)"/>
<defs>
<radialGradient id="paint0_radial_2035_37" cx="0" cy="0" r="1" gradientUnits="userSpaceOnUse" gradientTransform="translate(6.44939 54.8894) scale(79.8508 79.8508)">
<stop stop-color="#EC8818"/>
<stop offset="0.07" stop-color="#E66F13"/>
<stop offset="0.15" stop-color="#E1590F"/>
<stop offset="0.25" stop-color="#DD480B"/>
<stop offset="0.37" stop-color="#DA3C09"/>
<stop offset="0.53" stop-color="#D93508"/>
<stop offset="1" stop-color="#D93408"/>
</radialGradient>
</defs>
</svg>
