<svg width="27" height="27" viewBox="0 0 27 27" fill="none" xmlns="http://www.w3.org/2000/svg">
<path d="M26.7253 13.363C26.7253 20.7433 20.7427 26.726 13.3623 26.726C5.98268 26.7253 0 20.7427 0 13.363C0 5.98268 5.98268 0 13.363 0C20.7433 0 26.726 5.98268 26.726 13.363H26.7253Z" fill="#0C1636"/>
<path d="M11.6597 12.0829L6.90737 7H8.71203L12.442 10.9901L15.2986 7H20.2348L15.2383 13.9798L20.2348 19.3246H18.4301L14.4554 15.0731L11.4119 19.3246H6.47572L11.6597 12.0835V12.0829ZM17.6916 8.30678H15.9709L9.01951 18.0166H10.7402L17.6916 8.30678Z" fill="white"/>
</svg>
