<svg width="27" height="28" viewBox="0 0 27 28" fill="none" xmlns="http://www.w3.org/2000/svg">
<rect x="0.0818481" y="0.34137" width="26.73" height="26.73" rx="13.365" fill="#0C1636"/>
<path d="M21.5637 10.079C21.3815 9.3947 20.8465 8.85691 20.1657 8.67372C18.9331 8.34137 13.9881 8.34137 13.9881 8.34137C13.9881 8.34137 9.04311 8.34137 7.81044 8.67372C7.12968 8.85691 6.5947 9.3947 6.41247 10.079C6.08185 11.3182 6.08185 13.905 6.08185 13.905C6.08185 13.905 6.08185 16.4919 6.41247 17.731C6.5947 18.4154 7.12968 18.9532 7.81044 19.1363C9.04311 19.4687 13.9881 19.4687 13.9881 19.4687C13.9881 19.4687 18.9331 19.4687 20.1657 19.1363C20.8465 18.9532 21.3815 18.4154 21.5637 17.731C21.8943 16.4919 21.8943 13.905 21.8943 13.905C21.8943 13.905 21.893 11.3182 21.5637 10.079Z" fill="white"/>
<path d="M12.4053 16.2479L16.5134 13.8763L12.4053 11.5046V16.2479Z" fill="#0C1636"/>
</svg>
